<?xml version="1.0" encoding="iso-8859-1"?>
<!-- Generator: Adobe Illustrator 17.1.0, SVG Export Plug-In . SVG Version: 6.00 Build 0)  -->
<!DOCTYPE svg PUBLIC "-//W3C//DTD SVG 1.1//EN" "http://www.w3.org/Graphics/SVG/1.1/DTD/svg11.dtd">
<svg xmlns="http://www.w3.org/2000/svg" xmlns:xlink="http://www.w3.org/1999/xlink" version="1.1" id="Capa_1" x="0px" y="0px" viewBox="0 0 443.229 443.229" style="enable-background:new 0 0 443.229 443.229;" xml:space="preserve" width="512px" height="512px">
<g>
	<path d="M227.916,326.433h-25.118c-4.142,0-7.5,3.357-7.5,7.5c0,4.142,3.358,7.5,7.5,7.5h25.118c4.142,0,7.5-3.358,7.5-7.5   C235.416,329.79,232.058,326.433,227.916,326.433z" fill="#FFFFFF"/>
	<path d="M410.614,229.048c4.142,0,7.5-3.357,7.5-7.5c0-0.083-0.01-0.163-0.012-0.246c0.002-0.082,0.012-0.162,0.012-0.245   c0-4.143-3.358-7.5-7.5-7.5c-2.1,0-3.808-1.707-3.808-3.807c-0.001-4.142-3.358-7.499-7.501-7.499   c-0.006,0-0.011,0.001-0.017,0.001s-0.012-0.001-0.018-0.001h-45.15l4.589-4.589c0.005-0.005,0.009-0.011,0.015-0.017   c0.003-0.004,0.008-0.006,0.011-0.01c2.929-2.93,2.928-7.678-0.001-10.605c-0.97-0.971-1.115-2.104-1.115-2.692   c0-0.589,0.145-1.722,1.115-2.691c2.929-2.93,2.929-7.678,0-10.607c-0.034-0.034-0.071-0.061-0.105-0.095   c-0.03-0.031-0.055-0.064-0.085-0.095c-2.929-2.928-7.678-2.928-10.607,0c-0.866,0.866-2.017,1.343-3.24,1.343   c-1.224,0-2.374-0.477-3.239-1.342c-1.787-1.787-1.786-4.693,0-6.48c2.929-2.93,2.929-7.678,0-10.607   c-2.929-2.928-7.678-2.928-10.606,0c-0.866,0.866-2.017,1.343-3.24,1.343c-1.223,0-2.373-0.476-3.239-1.343   c-0.865-0.864-1.341-2.015-1.341-3.238c0-1.224,0.477-2.374,1.342-3.239c2.929-2.929,2.93-7.677,0.001-10.606   c-2.928-2.929-7.677-2.93-10.606-0.001c-1.787,1.787-4.694,1.787-6.48,0c-1.786-1.786-1.785-4.693,0.002-6.48   c2.929-2.929,2.928-7.678-0.001-10.607c-0.059-0.059-0.122-0.108-0.182-0.165c-0.057-0.06-0.107-0.124-0.166-0.183   c-2.929-2.928-7.678-2.928-10.606,0c-0.72,0.72-1.676,1.116-2.693,1.116c-0.589,0-1.721-0.145-2.691-1.114   c-2.928-2.929-7.677-2.93-10.606-0.001c-0.005,0.005-0.009,0.011-0.014,0.016c-0.003,0.004-0.007,0.006-0.011,0.01l-48.411,48.411   c0.656-4.196,1.003-8.493,1.003-12.871V82.993C232.911,37.23,195.68,0,149.917,0c-45.763,0-82.994,37.23-82.994,82.993v71.817   c0,34.249,20.856,63.716,50.534,76.376v14.479H90.291c-1,0.002-24.501,0.039-43.179,18.583   c-14.596,14.493-21.997,35.828-21.997,63.415v108.066c0,4.142,3.358,7.5,7.5,7.5H267.22c4.142,0,7.5-3.358,7.5-7.5V327.663   c0-5.063-0.254-9.912-0.752-14.551h125.304c0.006,0,0.012-0.001,0.018-0.001c0.006,0,0.012,0.001,0.018,0.001   c4.142,0,7.5-3.357,7.5-7.5c0-2.099,1.707-3.807,3.807-3.807c4.142,0,7.5-3.357,7.5-7.5c0-0.045-0.006-0.09-0.007-0.135   c0.001-0.045,0.007-0.09,0.007-0.135c0-4.143-3.358-7.5-7.5-7.5c-2.526,0-4.582-2.055-4.582-4.581c0-2.526,2.056-4.581,4.582-4.581   c4.142,0,7.5-3.358,7.5-7.5c0-4.143-3.358-7.5-7.5-7.5c-1.225,0-2.375-0.477-3.241-1.342c-0.865-0.865-1.342-2.016-1.342-3.24   c0-2.526,2.056-4.581,4.582-4.581c4.142,0,7.5-3.357,7.5-7.5c0-4.143-3.358-7.5-7.5-7.5c-2.527,0-4.582-2.054-4.582-4.582   c0-1.224,0.477-2.374,1.341-3.239C408.239,229.525,409.39,229.048,410.614,229.048z M286.754,134.05   c1.371,0.539,2.807,0.907,4.284,1.111c0.387,4.426,2.264,8.746,5.644,12.125c3.221,3.221,7.295,5.066,11.502,5.569   c0.513,4.347,2.44,8.372,5.583,11.514c3.142,3.145,7.169,5.073,11.517,5.586c0.503,4.206,2.349,8.28,5.569,11.501   c3.258,3.258,7.462,5.223,11.992,5.646c0.209,1.421,0.568,2.805,1.087,4.125l-83.019,83.02c-2.371-3.549-5.033-6.829-8.01-9.81   l55.581-55.581c3.268-3.268,5.067-7.612,5.067-12.233c0-4.621-1.8-8.966-5.067-12.233l-16.632-16.633   c-6.745-6.744-17.72-6.746-24.467,0l-77.907,77.908h-7.101v-14.478c13.612-5.807,25.367-15.147,34.106-26.864L286.754,134.05z    M312.753,243.62h41.17c1.268,0,2.301,1.031,2.301,2.3v23.522c0,1.269-1.032,2.301-2.301,2.301H284.63L312.753,243.62z    M210.666,245.689l67.324-67.325c0.897-0.896,2.358-0.896,3.254,0l16.633,16.633c0.557,0.557,0.673,1.191,0.673,1.626   c0,0.435-0.117,1.07-0.674,1.627l-56.867,56.866C227.552,246.972,214.45,245.841,210.666,245.689z M149.917,15   c37.492,0,67.994,30.502,67.994,67.993v3.709l-13.657-6.828V66.288c0-0.342-0.023-0.684-0.07-1.022   c-1.426-10.358-19.17-15.394-54.246-15.394c-35.076,0-52.82,5.035-54.246,15.394c-0.046,0.339-0.07,0.681-0.07,1.022v13.586   l-13.698,6.849v-3.729C81.923,45.502,112.425,15,149.917,15z M81.923,154.811v-51.318l24.552-12.274   c2.541-1.269,4.146-3.867,4.146-6.708V69.436c3.103-1.48,12.756-4.563,39.316-4.563c26.56,0,36.213,3.083,39.316,4.563V84.51   c0,2.841,1.605,5.438,4.146,6.708l24.511,12.254v51.339c0,14.833-4.789,28.562-12.881,39.75l-4.649,4.648   c-0.892,0.892-1.508,1.953-1.857,3.079c-12.354,12.645-29.575,20.516-48.607,20.516C112.425,222.804,81.923,192.302,81.923,154.811   z M149.917,237.804c5.989,0,11.827-0.652,17.46-1.863v7.758c-0.271-0.193-0.556-0.371-0.856-0.528   c-2.463-1.297-5.442-1.123-7.738,0.451l-9.051,6.21l-9.051-6.208c-2.296-1.575-5.276-1.748-7.738-0.451   c-0.17,0.09-0.325,0.199-0.486,0.3v-7.531C138.09,237.151,143.928,237.804,149.917,237.804z M124.957,260.665   c1.464,0,2.826-0.426,3.981-1.152v4.672c0,2.784,1.542,5.339,4.005,6.636c1.098,0.578,2.298,0.864,3.494,0.864   c1.488,0,2.971-0.442,4.244-1.315l9.051-6.21l9.05,6.21c1.273,0.873,2.755,1.315,4.244,1.315c1.196,0,2.396-0.286,3.494-0.864   c2.463-1.297,4.005-3.852,4.005-6.636v-4.918c1.228,0.877,2.727,1.398,4.351,1.398h27.785l-51.708,51.71l-51.709-51.71H124.957z    M40.114,327.663c0-48.426,25.786-61.852,40.393-65.572c0.361,1.027,0.943,1.994,1.765,2.816l61.182,61.182v102.14H40.114V327.663z    M259.72,428.229H158.453v-102.14l61.181-61.182c0.683-0.685,1.201-1.469,1.565-2.305c14.822,4.378,38.52,18.637,38.52,65.06   V428.229z M268.139,288.234l1.706-1.706c0.564,0.136,1.148,0.215,1.753,0.215h82.326c9.539,0,17.301-7.761,17.301-17.301V245.92   c0-9.539-7.761-17.3-17.301-17.3h-26.171l11.369-11.369h54.256c0.595,1.36,1.354,2.629,2.239,3.8   c-2.963,3.523-4.585,7.923-4.585,12.579c0,4.56,1.58,8.75,4.203,12.081c-2.623,3.331-4.203,7.521-4.203,12.08   c0,4.445,1.483,8.657,4.195,12.093c-2.618,3.33-4.195,7.517-4.195,12.071c0,4.735,1.691,9.082,4.499,12.472   c-0.847,1.14-1.578,2.369-2.153,3.686H271.292C270.411,294.668,269.36,291.375,268.139,288.234z" fill="#FFFFFF"/>
</g>
<g>
</g>
<g>
</g>
<g>
</g>
<g>
</g>
<g>
</g>
<g>
</g>
<g>
</g>
<g>
</g>
<g>
</g>
<g>
</g>
<g>
</g>
<g>
</g>
<g>
</g>
<g>
</g>
<g>
</g>
</svg>
