<?xml version="1.0" encoding="utf-8"?>
<svg id="Capa_1" style="enable-background:new 0 0 94.003 94.003;" x="0px" y="0px" width="512px" height="512px" viewBox="0 0 94.003 94.003" xmlns="http://www.w3.org/2000/svg">
  <g>
    <path d="M21.531,54.713L39.29,72.472l32.583-32.583L54.115,22.13L21.531,54.713z M92.524,30.323   l-7.556-7.557c-1.439,0.784-3.088,1.231-4.841,1.231c-5.591,0-10.123-4.532-10.123-10.122c0-1.753,0.448-3.402,1.232-4.841   l-7.557-7.557c-1.969-1.969-5.188-1.969-7.157,0L1.478,56.524c-1.968,1.968-1.968,5.188,0,7.156l7.558,7.557   c1.438-0.784,3.088-1.23,4.841-1.23c5.591,0,10.122,4.53,10.122,10.121c0,1.753-0.447,3.402-1.232,4.842l7.557,7.557   c1.969,1.968,5.189,1.968,7.158,0l55.044-55.046C94.493,35.512,94.493,32.292,92.524,30.323z M39.29,80.595L13.41,54.713   l40.707-40.705l25.879,25.881L39.29,80.595z" fill="#FFFFFF"/>
  </g>
  <g/>
  <g/>
  <g/>
  <g/>
  <g/>
  <g/>
  <g/>
  <g/>
  <g/>
  <g/>
  <g/>
  <g/>
  <g/>
  <g/>
  <g/>
  <g transform="matrix(0.117919, 0, 0, 0.143212, -32.288521, 48.714767)">
    <g id="add-circle-outline" transform="matrix(0.592283, 0, 0, 0.470326, 507.643005, 139.93808)">
      <path d="M 702.877 -27.12 L 651.877 -27.12 L 651.877 74.88 L 549.877 74.88 L 549.877 125.88 L 651.877 125.88 L 651.877 227.88 L 702.877 227.88 L 702.877 125.88 L 804.877 125.88 L 804.877 74.88 L 702.877 74.88 L 702.877 -27.12 Z M 677.377 -154.62 C 537.127 -154.62 422.377 -39.87 422.377 100.38 C 422.377 240.63 537.127 355.38 677.377 355.38 C 817.627 355.38 932.377 240.63 932.377 100.38 C 932.377 -39.87 817.627 -154.62 677.377 -154.62 Z M 677.377 304.38 C 565.177 304.38 473.377 212.58 473.377 100.38 C 473.377 -11.82 565.177 -103.62 677.377 -103.62 C 789.577 -103.62 881.377 -11.82 881.377 100.38 C 881.377 212.58 789.577 304.38 677.377 304.38 Z" fill="#FFFFFF"/>
    </g>
  </g>
</svg>