<?xml version="1.0" encoding="iso-8859-1"?>
<!-- Generator: Adobe Illustrator 19.0.0, SVG Export Plug-In . SVG Version: 6.00 Build 0)  -->
<svg xmlns="http://www.w3.org/2000/svg" xmlns:xlink="http://www.w3.org/1999/xlink" version="1.1" id="Layer_1" x="0px" y="0px" viewBox="0 0 218.182 218.182" style="enable-background:new 0 0 218.182 218.182;" xml:space="preserve" width="512px" height="512px">
<g>
	<g>
		<g>
			<path d="M159.663,16.162V0H54.613v16.162h-26.33v202.02h161.616V16.162H159.663z M62.693,16.162V8.081h88.889v8.081v16.162     H62.693V16.162z M36.364,210.101V24.242h18.249v16.162h12.121v14.141c0,2.231,1.807,4.04,4.04,4.04c2.233,0,4.04-1.809,4.04-4.04     V40.404h60.606v14.141c0,2.231,1.807,4.04,4.04,4.04c2.233,0,4.04-1.809,4.04-4.04V40.404h16.162V24.242h22.155v185.859H36.364z" fill="#FFFFFF"/>
			<path d="M164.549,100.607c-2.158-0.669-4.4,0.533-5.059,2.661l-14.161,45.617l-27.624-84.558L88.83,114.99L65.507,78.019     l-18.912,51.748c-0.766,2.095,0.312,4.415,2.411,5.183c2.091,0.758,4.415-0.314,5.181-2.409l13.261-36.297l21.737,34.45     l26.507-46.512l29.834,91.325l21.682-69.843C167.871,103.533,166.679,101.268,164.549,100.607z" fill="#FFFFFF"/>
		</g>
	</g>
</g>
<g>
</g>
<g>
</g>
<g>
</g>
<g>
</g>
<g>
</g>
<g>
</g>
<g>
</g>
<g>
</g>
<g>
</g>
<g>
</g>
<g>
</g>
<g>
</g>
<g>
</g>
<g>
</g>
<g>
</g>
</svg>
