<?xml version="1.0" encoding="iso-8859-1"?>
<!-- Generator: Adobe Illustrator 19.1.0, SVG Export Plug-In . SVG Version: 6.00 Build 0)  -->
<svg xmlns="http://www.w3.org/2000/svg" xmlns:xlink="http://www.w3.org/1999/xlink" version="1.1" id="Capa_1" x="0px" y="0px" viewBox="0 0 118.177 118.177" style="enable-background:new 0 0 118.177 118.177;" xml:space="preserve" width="512px" height="512px">
<g>
	<path d="M103.035,32.413l-0.501-8.011l-0.367-5.87c-0.107-1.735-1.546-3.088-3.286-3.091l-4.857-0.006   c-3.621,5.617-7.265,13.322-10.199,21.222c2.148,2.876,2.006,6.955-0.539,9.661c-2.853,3.033-7.624,3.179-10.657,0.326   c-3.033-2.853-3.179-7.624-0.326-10.657c0.989-1.052,2.215-1.732,3.513-2.085c2.768-7.693,5.562-13.74,8.265-18.48L54.74,15.389   c0,0,0,0-0.003,0c-0.511,0-0.999,0.123-1.436,0.34c-0.365,0.173-0.7,0.415-0.988,0.719L3.335,68.523   c-0.599,0.637-0.92,1.485-0.892,2.361c0.028,0.873,0.398,1.699,1.035,2.3l46.887,44.098c0.637,0.598,1.449,0.895,2.259,0.895   c0.876,0,1.751-0.349,2.402-1.038l48.817-51.902c0.733-0.662,1.145-1.633,1.079-2.652L103.035,32.413z M57.135,72.956   c-0.441-0.998-1.125-2.863-3.15-4.768c-1.829-1.72-3.161-1.488-3.902-0.7c-0.873,0.928-0.443,2.445,1.101,5.594   c2.236,4.331,2.132,7.147-0.251,9.68c-2.355,2.504-6.138,2.973-9.902,0.494l-2.697,2.868l-2.757-2.593l2.512-2.671   c-1.806-1.858-3.158-4.084-3.645-5.708l3.94-2.498c0.573,1.757,1.678,3.909,3.506,5.629c1.603,1.508,3.282,1.922,4.34,0.797   c1.006-1.07,0.742-2.592-0.678-5.253c-2.059-3.844-2.789-7.182-0.223-9.91c2.329-2.476,5.898-2.775,9.464-0.535l2.514-2.673   l2.757,2.593l-2.329,2.476c1.805,1.858,2.704,3.441,3.207,4.765L57.135,72.956z M82.569,71.175   c-0.209,0.22-0.489,0.332-0.769,0.332c-0.258,0-0.519-0.096-0.722-0.285L48.064,40.168c-0.425-0.401-0.445-1.068-0.047-1.491   c0.403-0.42,1.071-0.442,1.491-0.047l33.014,31.054C82.948,70.085,82.967,70.752,82.569,71.175z" fill="#FFFFFF"/>
	<path d="M115.234,7.788c-0.799-2.69-3.332-7.28-11.307-7.779c-2.498-0.143-15.863,1.04-28.539,40.368   c-0.428,1.331,0.302,2.756,1.63,3.184c0.258,0.082,0.519,0.124,0.777,0.124c1.068,0,2.061-0.683,2.407-1.754   c4.686-14.526,15.094-37.342,23.412-36.87c3.739,0.233,6.017,1.636,6.769,4.17c1.111,3.737-0.989,9.974-6.16,15.844l0.409,6.765   C112.899,24.335,117.286,14.693,115.234,7.788z" fill="#FFFFFF"/>
</g>
<g>
</g>
<g>
</g>
<g>
</g>
<g>
</g>
<g>
</g>
<g>
</g>
<g>
</g>
<g>
</g>
<g>
</g>
<g>
</g>
<g>
</g>
<g>
</g>
<g>
</g>
<g>
</g>
<g>
</g>
</svg>
