<?xml version="1.0" encoding="utf-8"?>
<!-- Generator: Adobe Illustrator 16.0.0, SVG Export Plug-In . SVG Version: 6.00 Build 0)  -->
<!DOCTYPE svg PUBLIC "-//W3C//DTD SVG 1.1//EN" "http://www.w3.org/Graphics/SVG/1.1/DTD/svg11.dtd">
<svg version="1.1" id="Layer_1" xmlns="http://www.w3.org/2000/svg" xmlns:xlink="http://www.w3.org/1999/xlink" x="0px" y="0px"
	 width="100px" height="25px" viewBox="0 0 100 25" enable-background="new 0 0 100 25" xml:space="preserve">
<g>
	<g>
		<path fill="#FFFFFF" stroke="#FFFFFF" stroke-width="0.25" d="M17.473,8.069c-0.069-0.031-0.14-0.067-0.213-0.106
			c-0.075-0.038-0.146-0.074-0.214-0.105c-0.227-0.078-0.468-0.143-0.725-0.199c-0.256-0.055-0.594-0.081-1.016-0.081H9.938
			c-0.438,0-0.743,0.042-0.917,0.129C8.846,7.791,8.719,7.967,8.637,8.233l-0.274,0.89c-0.085,0.281-0.065,0.461,0.06,0.54
			C8.545,9.74,8.826,9.779,9.264,9.779h4.101c1.218,0,2.076,0.231,2.576,0.691c0.499,0.46,0.581,1.237,0.247,2.331l-1.12,3.654
			c-0.364,1.189-0.896,2.099-1.598,2.729c-0.702,0.635-1.739,0.949-3.114,0.949H0l0.44-3.045c0.238,0.142,0.503,0.27,0.795,0.385
			c0.292,0.119,0.72,0.177,1.281,0.177h5.53c0.453,0,0.758-0.038,0.916-0.116c0.156-0.079,0.278-0.258,0.364-0.538l0.316-1.032
			c0.081-0.266,0.068-0.441-0.039-0.527c-0.106-0.086-0.386-0.129-0.839-0.129H4.102c-1.139,0-1.881-0.23-2.224-0.691
			c-0.344-0.46-0.324-1.316,0.059-2.565L2.963,8.7c0.368-1.202,0.921-2.104,1.66-2.705c0.74-0.601,1.608-0.903,2.608-0.903h10.66
			L17.473,8.069z"/>
		<path fill="#FFFFFF" stroke="#FFFFFF" stroke-width="0.25" d="M25.773,20.135l0.187-1.147h-0.046
			c-0.005,0.015-0.012,0.027-0.024,0.037c-0.01,0.006-0.017,0.019-0.021,0.033c-0.207,0.268-0.45,0.512-0.731,0.737
			c-0.279,0.227-0.614,0.34-1.005,0.34h-4.475c-1.296,0-2.125-0.358-2.482-1.077s-0.348-1.694,0.03-2.929l1.372-4.477
			c0.21-0.686,0.313-1.19,0.31-1.51c-0.004-0.32-0.037-0.605-0.101-0.854c-0.006-0.032-0.014-0.059-0.021-0.083
			c-0.01-0.023-0.016-0.049-0.022-0.082h6.139l-2.433,7.943c-0.105,0.345-0.112,0.583-0.021,0.714
			c0.092,0.134,0.311,0.199,0.654,0.199h2.015c0.344,0,0.603-0.065,0.777-0.199c0.172-0.131,0.312-0.369,0.417-0.714l1.657-5.413
			c0.211-0.686,0.315-1.19,0.311-1.51c-0.003-0.32-0.036-0.605-0.101-0.854c-0.005-0.032-0.013-0.059-0.021-0.083
			c-0.008-0.023-0.016-0.049-0.022-0.082H34.3l-2.598,8.481c-0.21,0.689-0.313,1.193-0.31,1.514
			c0.004,0.317,0.037,0.605,0.101,0.854c0.006,0.03,0.013,0.058,0.023,0.082c0.008,0.023,0.015,0.05,0.021,0.081H25.773z"/>
		<path fill="#FFFFFF" stroke="#FFFFFF" stroke-width="0.25" d="M41.892,9.123l-0.188,1.149h0.047
			c0.005-0.016,0.013-0.028,0.022-0.036c0.01-0.007,0.019-0.019,0.023-0.035c0.206-0.266,0.45-0.511,0.729-0.738
			s0.615-0.34,1.007-0.34h4.521c1.297,0,2.124,0.36,2.48,1.078c0.357,0.719,0.348,1.694-0.028,2.929l-1.372,4.474
			c-0.211,0.689-0.314,1.193-0.31,1.514c0.002,0.317,0.036,0.605,0.101,0.854c0.006,0.03,0.012,0.058,0.022,0.082
			c0.007,0.023,0.015,0.05,0.022,0.081h-6.796c0.024-0.031,0.049-0.058,0.072-0.081c0.022-0.024,0.045-0.052,0.072-0.082
			c0.217-0.249,0.426-0.537,0.625-0.854c0.2-0.32,0.405-0.824,0.615-1.514l1.658-5.411c0.105-0.343,0.111-0.582,0.02-0.714
			c-0.092-0.132-0.311-0.2-0.655-0.2h-2.015c-0.344,0-0.603,0.068-0.774,0.2c-0.174,0.133-0.313,0.372-0.418,0.714l-1.658,5.411
			c-0.211,0.689-0.315,1.193-0.31,1.514c0.002,0.317,0.037,0.605,0.101,0.854c0.005,0.03,0.013,0.058,0.021,0.082
			c0.009,0.023,0.016,0.05,0.022,0.081h-6.748c0.025-0.031,0.049-0.058,0.073-0.081c0.021-0.024,0.045-0.052,0.071-0.082
			c0.217-0.249,0.426-0.537,0.625-0.854c0.199-0.32,0.405-0.824,0.616-1.514l1.822-5.951c0.21-0.686,0.313-1.19,0.311-1.51
			c-0.003-0.32-0.036-0.605-0.102-0.854c-0.005-0.032-0.014-0.059-0.021-0.083c-0.01-0.023-0.016-0.049-0.022-0.082H41.892z"/>
	</g>
	<g>
		<path fill="#FFFFFF" stroke="#FFFFFF" stroke-width="0.25" d="M58.964,5.183H70.96h0.022l-0.477,3.092
			c-0.065-0.046-0.125-0.089-0.184-0.128c-0.061-0.039-0.111-0.082-0.159-0.127c-0.203-0.11-0.418-0.196-0.648-0.259
			c-0.231-0.062-0.549-0.094-0.955-0.094h-2.647l-3.059,9.982c-0.215,0.702-0.338,1.23-0.367,1.581s-0.017,0.668,0.038,0.948
			c-0.004,0.016-0.002,0.033,0.009,0.047H55.88c0.019-0.014,0.032-0.031,0.037-0.047c0.228-0.28,0.432-0.598,0.619-0.948
			c0.186-0.351,0.386-0.879,0.603-1.581l3.056-9.982h-2.602c-0.405,0-0.743,0.032-1.013,0.094c-0.267,0.063-0.536,0.148-0.805,0.259
			c-0.078,0.045-0.156,0.088-0.238,0.127c-0.083,0.04-0.17,0.083-0.261,0.128l1.414-3.092H58.964z"/>
		<path fill="#FFFFFF" stroke="#FFFFFF" stroke-width="0.25" d="M69.333,13.988c0.154-0.506,0.23-0.876,0.229-1.112
			c-0.004-0.235-0.028-0.444-0.075-0.629c-0.005-0.022-0.01-0.042-0.018-0.059c-0.004-0.017-0.011-0.038-0.016-0.061h4.516
			l-1.911,6.237c-0.154,0.505-0.23,0.876-0.226,1.111c0.001,0.235,0.025,0.444,0.072,0.63c0.004,0.021,0.009,0.041,0.016,0.059
			c0.006,0.018,0.013,0.038,0.018,0.061h-4.963c0.018-0.022,0.035-0.043,0.052-0.061c0.018-0.018,0.034-0.037,0.052-0.059
			c0.162-0.186,0.313-0.395,0.461-0.63c0.146-0.235,0.297-0.606,0.453-1.111L69.333,13.988z M74.843,9.164L74.188,11.3H70.19
			l0.654-2.136H74.843z"/>
		<path fill="#FFFFFF" stroke="#FFFFFF" stroke-width="0.25" d="M84.287,19.055c0.062,0.138,0.117,0.252,0.169,0.343
			c0.054,0.094,0.104,0.174,0.151,0.241c0.019,0.047,0.044,0.086,0.068,0.111c0.025,0.028,0.057,0.063,0.095,0.098
			c0.048,0.056,0.104,0.113,0.168,0.172c0.063,0.057,0.14,0.125,0.231,0.205h-5.808c0.029-0.091,0.045-0.17,0.047-0.233
			c0.002-0.062-0.007-0.122-0.022-0.179c-0.01-0.045-0.026-0.096-0.051-0.147c-0.024-0.053-0.052-0.106-0.079-0.164l-0.705-1.464
			l-2.143,1.43c-0.292,0.196-0.484,0.356-0.581,0.482c-0.097,0.127-0.156,0.218-0.187,0.275H72.66
			c0.609-0.333,1.048-0.584,1.324-0.749c0.274-0.167,0.508-0.319,0.698-0.456c0.014,0,0.021-0.006,0.032-0.018
			s0.02-0.019,0.031-0.019c0.029-0.022,0.063-0.045,0.098-0.068c0.037-0.022,0.069-0.046,0.099-0.068l3.011-2.066l-2.003-4.033
			c-0.055-0.127-0.123-0.239-0.208-0.337c-0.085-0.097-0.178-0.191-0.274-0.284h5.601c-0.004,0.011-0.007,0.021-0.01,0.026
			c0,0.006-0.004,0.015-0.007,0.025c-0.014,0.046-0.024,0.089-0.03,0.13c-0.008,0.04-0.008,0.072-0.003,0.095
			c0.007,0.045,0.02,0.094,0.031,0.146c0.013,0.05,0.038,0.113,0.073,0.181l0.684,1.431l2.034-1.414
			c0.045-0.035,0.091-0.069,0.135-0.104c0.047-0.035,0.086-0.068,0.117-0.104c0.082-0.068,0.15-0.137,0.212-0.206
			c0.061-0.069,0.113-0.139,0.156-0.207h2.86c-0.068,0.045-0.144,0.093-0.214,0.138c-0.072,0.047-0.143,0.092-0.213,0.139
			c-0.145,0.091-0.287,0.181-0.428,0.267c-0.144,0.086-0.286,0.181-0.433,0.285l-3.59,2.499L84.287,19.055z"/>
		<path fill="#FFFFFF" stroke="#FFFFFF" stroke-width="0.25" d="M96.797,19.055c0.06,0.138,0.118,0.252,0.169,0.343
			c0.052,0.094,0.102,0.174,0.149,0.241c0.02,0.047,0.044,0.086,0.07,0.111c0.024,0.028,0.057,0.063,0.091,0.098
			c0.052,0.056,0.108,0.113,0.172,0.172c0.063,0.057,0.139,0.125,0.229,0.205h-5.806c0.028-0.091,0.043-0.17,0.045-0.233
			c0.003-0.062-0.006-0.122-0.021-0.179c-0.01-0.045-0.025-0.096-0.049-0.147c-0.026-0.053-0.053-0.106-0.081-0.164l-0.705-1.464
			l-2.144,1.43c-0.29,0.196-0.482,0.356-0.579,0.482c-0.098,0.127-0.158,0.218-0.187,0.275h-2.98
			c0.608-0.333,1.047-0.584,1.323-0.749c0.275-0.167,0.508-0.319,0.698-0.456c0.013,0,0.022-0.006,0.032-0.018
			c0.011-0.012,0.02-0.019,0.031-0.019c0.029-0.022,0.062-0.045,0.098-0.068c0.036-0.022,0.068-0.046,0.099-0.068l3.011-2.066
			l-2.003-4.033c-0.055-0.127-0.123-0.239-0.207-0.337c-0.086-0.097-0.178-0.191-0.274-0.284h5.6
			c-0.005,0.011-0.007,0.021-0.009,0.026c0,0.006-0.006,0.015-0.008,0.025c-0.014,0.046-0.024,0.089-0.031,0.13
			c-0.007,0.04-0.007,0.072-0.002,0.095c0.008,0.045,0.02,0.094,0.031,0.146c0.013,0.05,0.037,0.113,0.074,0.181l0.683,1.431
			l2.036-1.414c0.044-0.035,0.089-0.069,0.133-0.104c0.046-0.035,0.084-0.068,0.117-0.104c0.08-0.068,0.15-0.137,0.209-0.206
			c0.062-0.069,0.116-0.139,0.159-0.207h2.861c-0.072,0.045-0.144,0.093-0.215,0.138c-0.07,0.047-0.144,0.092-0.214,0.139
			c-0.145,0.091-0.286,0.181-0.427,0.267c-0.142,0.086-0.283,0.181-0.433,0.285l-3.59,2.499L96.797,19.055z"/>
	</g>
</g>
<g>
</g>
<g>
</g>
<g>
</g>
<g>
</g>
<g>
</g>
<g>
</g>
</svg>
